<?xml version="1.0" encoding="utf-8"?>
<!-- Generator: Adobe Illustrator 19.0.0, SVG Export Plug-In . SVG Version: 6.00 Build 0)  -->
<svg version="1.1" id="图层_1" xmlns="http://www.w3.org/2000/svg" xmlns:xlink="http://www.w3.org/1999/xlink" x="0px" y="0px"
	 width="48px" height="48px" viewBox="9 -9 48 48" style="enable-background:new 9 -9 48 48;" xml:space="preserve">
<style type="text/css">
	.st0{fill:#00C800;}
	.st1{fill:#FFFFFF;}
</style>
<path class="st0" d="M51,39H15c-3.3,0-6-2.7-6-6V-3c0-3.3,2.7-6,6-6h36c3.3,0,6,2.7,6,6v36C57,36.3,54.3,39,51,39z"/>
<path class="st1" d="M33,27.671c-1.993,0-3.897-0.34-5.643-0.951c-1.111,0.739-2.976,1.952-3.708,2.289
	c-1.075,0.497-0.765-0.573-0.765-0.573l0.636-3.667c-3.525-2.456-5.789-6.247-5.789-10.504c0-7.404,6.836-13.406,15.269-13.406
	c5.168,0,9.731,2.255,12.495,5.704l-14.976,6.934c0,0-1.221,0.462-2.29-0.191c-1.07-0.653-2.483-1.724-2.483-1.724
	s-1.644-1.399-0.762,1.149l2.291,5.362c0,0,0.271,1.598,2.097,0.575c1.431-0.799,12.529-7.492,17.301-10.372
	c1.02,1.798,1.596,3.822,1.596,5.967C48.269,21.669,41.433,27.671,33,27.671z"/>
</svg>
