<?xml version="1.0" standalone="no"?>
<!DOCTYPE svg PUBLIC "-//W3C//DTD SVG 1.1//EN" "http://www.w3.org/Graphics/SVG/1.1/DTD/svg11.dtd" >
<svg xmlns="http://www.w3.org/2000/svg">
<metadata>
<json>
<![CDATA[
{
	"fontFamily": "jlzhy-mob-icon",
	"majorVersion": 1,
	"minorVersion": 0,
	"version": "Version 1.0",
	"fontId": "jlzhy-mob-icon",
	"psName": "jlzhy-mob-icon",
	"subFamily": "Regular",
	"fullName": "jlzhy-mob-icon",
	"description": "Font generated by IcoMoon."
}
]]>
</json>
</metadata>
<defs>
<font id="jlzhy-mob-icon" horiz-adv-x="1024">
<font-face units-per-em="1024" ascent="960" descent="-64" />
<missing-glyph horiz-adv-x="1024" />
<glyph unicode="&#x20;" horiz-adv-x="512" d="" />
<glyph unicode="&#xe900;" glyph-name="screen" data-tags="screen" d="M960 256h-320v-64h192c35.328 0 64-28.64 64-64s-28.64-64-64-64h-640c-35.36 0-64 28.64-64 64s28.64 64 64 64h192v64h-320c-35.328 0-64 28.672-64 64v448c0 35.36 28.64 64 64 64h896c35.36 0 64-28.64 64-64v-448c0-35.328-28.672-64-64-64zM630.624 502.624c-8.256 8.256-83.36 83.36-137.376 137.376h50.752c17.664 0 32 14.336 32 32s-14.336 32-32 32h-128c-4.16 0-8.32-0.864-12.224-2.464-3.904-1.632-7.456-3.968-10.4-6.912v0 0c-5.792-5.792-9.376-13.792-9.376-22.624v-128c0-17.664 14.336-32 32-32s32 14.336 32 32v50.752c54.016-54.016 129.12-129.12 137.376-137.376 12.512-12.512 32.768-12.512 45.248 0 12.512 12.48 12.512 32.768 0 45.248z" />
<glyph unicode="&#xe901;" glyph-name="head" data-tags="head" d="M512-64c282.773 0 512 229.227 512 512s-229.227 512-512 512c-282.773 0-512-229.227-512-512s229.227-512 512-512zM853.333 213.333c0-11.776-9.557-21.333-21.333-21.333s-21.333 9.557-21.333 21.333v0 64c0 47.125-110.144 85.333-298.667 85.333s-298.667-38.208-298.667-85.333v-65.451h-0.299c-0.768-11.072-9.771-19.883-21.035-19.883-11.776 0-21.333 9.557-21.333 21.333v0 64c0 70.699 129.259 128 341.333 128s341.333-57.301 341.333-128v-64zM512 490.667c-58.901 0-106.667 47.765-106.667 106.667v85.333c0 58.923 47.765 106.667 106.667 106.667s106.667-47.744 106.667-106.667v-85.333c0-58.901-47.765-106.667-106.667-106.667zM576 682.667c0 35.349-28.651 64-64 64s-64-28.651-64-64v-85.333c0-35.349 28.651-64 64-64s64 28.651 64 64v85.333z" />
<glyph unicode="&#xe902;" glyph-name="bubble-money" data-tags="dialogue" d="M936.928-34.272l-55.168 128.736c87.936 91.936 142.24 216.288 142.24 353.536 0 282.784-229.216 512-512 512s-512-229.216-512-512 229.216-512 512-512c5.76 0 11.36 0.672 17.088 0.864 1.408-0.32 2.72-0.864 4.256-0.864h384c11.776 0 21.344 9.536 21.344 21.344-0.032 2.976-0.64 5.824-1.76 8.384v0zM704 480h-160v-64h128c17.664 0 32-14.336 32-32s-14.336-32-32-32h-128v-128c0-17.664-14.336-32-32-32s-32 14.336-32 32v128h-128c-17.664 0-32 14.336-32 32s14.336 32 32 32h128v64h-160c-17.664 0-32 14.336-32 32s14.336 32 32 32h114.752l-105.376 105.376c-5.792 5.792-9.376 13.792-9.376 22.624 0 17.664 14.336 32 32 32 8.832 0 16.832-3.584 22.624-9.376l137.376-137.376 137.376 137.376c5.792 5.792 13.792 9.376 22.624 9.376 17.664 0 32-14.336 32-32 0-8.832-3.584-16.832-9.376-22.624l-105.376-105.376h114.752c17.664 0 32-14.336 32-32s-14.336-32-32-32z" />
<glyph unicode="&#xe903;" glyph-name="paper" data-tags="paper" d="M864-64v0h-672c-106.048 0-192 85.952-192 192v768c0 35.36 28.64 64 64 64h640c35.36 0 64-28.64 64-64v-576h192c35.36 0 64-28.672 64-64v-160c0-88.352-71.648-160-160-160zM160 256h192c17.664 0 32 14.336 32 32s-14.336 32-32 32h-192c-17.664 0-32-14.336-32-32s14.336-32 32-32zM608 704h-448c-17.664 0-32-14.336-32-32s14.336-32 32-32h448c17.664 0 32 14.336 32 32s-14.336 32-32 32zM608 512h-448c-17.664 0-32-14.336-32-32s14.336-32 32-32h448c17.664 0 32 14.336 32 32s-14.336 32-32 32zM960 224c0 17.664-14.336 32-32 32h-160v-160c0-53.024 42.976-96 96-96s96 42.976 96 96v128z" />
<glyph unicode="&#xe904;" glyph-name="delete" data-tags="delete" d="M512 928c-265.088 0-480-214.912-480-480s214.912-480 480-480 480 214.912 480 480-214.912 480-480 480zM726.624 278.624c5.792-5.792 9.376-13.792 9.376-22.624 0-17.664-14.336-32-32-32-8.832 0-16.832 3.584-22.624 9.376l-169.376 169.376-169.376-169.376c-5.792-5.792-13.792-9.376-22.624-9.376-17.664 0-32 14.336-32 32 0 8.832 3.584 16.832 9.376 22.624l169.376 169.376-169.376 169.376c-5.792 5.792-9.376 13.792-9.376 22.624 0 17.664 14.336 32 32 32 8.832 0 16.832-3.584 22.624-9.376l169.376-169.376 169.376 169.376c5.792 5.792 13.792 9.376 22.624 9.376 17.664 0 32-14.336 32-32 0-8.832-3.584-16.832-9.376-22.624l-169.376-169.376 169.376-169.376z" />
<glyph unicode="&#xe905;" glyph-name="eye-close" data-tags="eye-close" d="M851.968 505.312h-1.632c58.688 49.12 107.264 111.008 140.544 182.88 7.424 16.032 0.448 35.072-15.584 42.496-16.064 7.392-35.072 0.448-42.496-15.584-41.824-90.272-110.88-162.784-194.496-209.792-68.032-38.24-145.632-59.68-226.304-59.68-80.64 0-158.272 21.44-226.304 59.68-83.616 47.008-152.672 119.52-194.496 209.792-7.392 16.032-26.4 22.944-42.496 15.552-16.032-7.424-23.008-26.432-15.552-42.464 33.28-71.872 81.856-133.76 140.544-182.88h-1.632l-130.688-130.688c-5.792-5.792-9.376-13.792-9.376-22.624 0-17.664 14.336-32 32-32 8.832 0 16.832 3.584 22.624 9.376l138.112 138.112c46.624-30.368 97.952-53.216 152.128-67.712l-55.2-165.632 0.384-0.128c-1.088-3.2-2.048-6.464-2.048-10.016 0-17.664 14.336-32 32-32 14.144 0 25.728 9.312 29.984 22.016l0.384-0.128 57.632 172.864c23.68-3.296 47.712-5.12 72.032-5.12s48.32 1.824 72.032 5.12l57.632-172.864 0.384 0.128c4.192-12.704 15.776-22.016 29.92-22.016 17.664 0 32 14.336 32 32 0 3.552-0.96 6.816-2.016 9.984l0.384 0.128-55.2 165.632c53.856 14.432 104.96 37.088 151.36 67.168 0.256 0.16 0.544 0.32 0.832 0.48l138.048-138.048c5.76-5.76 13.76-9.344 22.592-9.344 17.664 0 32 14.336 32 32 0 8.832-3.584 16.832-9.376 22.624l-130.656 130.688z" />
<glyph unicode="&#xe906;" glyph-name="eye-open" data-tags="eye-open" d="M511.968 159.968c-274.88 0-479.968 192.832-479.968 287.968 0 95.104 205.984 287.648 479.968 287.648 284.256-0.032 480.096-192.48 480.032-287.584v0c0-91.904-197.984-288.032-480.032-288.032zM512 704c-141.376 0-256-114.624-256-256s114.624-256 256-256 256 114.624 256 256-114.624 256-256 256zM512 256c-106.048 0-192 85.952-192 192s85.952 192 192 192 192-85.952 192-192-85.952-192-192-192z" />
<glyph unicode="&#xe907;" glyph-name="car-paper-o" data-tags="car-paper-o" d="M981.333 149.333c0-23.552-19.093-42.667-42.667-42.667h-170.667v-106.667c0-11.776-9.557-21.333-21.333-21.333h-128c-5.888 0-11.221 2.389-15.083 6.251v0l-36.416 36.416h-323.669l-36.416-36.416c-3.861-3.861-9.195-6.251-15.083-6.251h-128c-11.776 0-21.333 9.557-21.333 21.333v234.667c0 60.053 41.493 110.059 97.28 123.861-3.456 2.411-7.424 4.139-11.947 4.139h-64c-11.776 0-21.333 9.557-21.333 21.333s9.557 21.333 21.333 21.333h64c10.304 0 19.883-2.709 28.48-7.061 22.101 88.469 94.315 157.013 184.853 173.675v302.72c0 23.573 19.093 42.667 42.667 42.667h384c5.888 0 11.221-2.389 15.083-6.251l192-192c3.861-3.861 6.251-9.195 6.251-15.083v-554.667zM85.333 234.667v-213.333h97.835l36.416 36.416c3.861 3.861 9.195 6.251 15.083 6.251v0h341.333c5.888 0 11.221-2.389 15.083-6.251l36.416-36.416h97.835v213.333c0 47.125-38.208 85.333-85.333 85.333h-469.333c-47.125 0-85.333-38.208-85.333-85.333zM193.429 363.861c4.459-0.768 10.517-1.195 19.904-1.195h384c9.963 0 15.893-0.427 20.139-0.299-10.496 96.128-91.883 170.965-190.805 170.965h-42.667c-98.411 0-179.392-74.069-190.571-169.472zM768 865.835v-161.835h161.835l-161.835 161.835zM938.667 661.333h-170.667c-23.573 0-42.667 19.115-42.667 42.667v170.667h-341.333v-298.667h42.667c109.952 0 201.963-75.712 227.435-177.792 8.619 4.395 18.219 7.125 28.565 7.125h64c11.776 0 21.333-9.557 21.333-21.333s-9.557-21.333-21.333-21.333h-64c-4.523 0-8.491-1.728-11.947-4.139 55.787-13.803 97.28-63.808 97.28-123.861v-85.333h170.667v512zM682.667 213.333c0-11.776-9.557-21.333-21.333-21.333h-85.333c-11.776 0-21.333 9.557-21.333 21.333s9.557 21.333 21.333 21.333h85.333c11.776 0 21.333-9.557 21.333-21.333zM234.667 192h-85.333c-11.776 0-21.333 9.557-21.333 21.333s9.557 21.333 21.333 21.333h85.333c11.776 0 21.333-9.557 21.333-21.333s-9.557-21.333-21.333-21.333z" />
<glyph unicode="&#xe908;" glyph-name="car-paper" data-tags="car-paper" d="M981.333 149.333c0-23.573-19.093-42.667-42.667-42.667h-128v128c0 35.456-10.816 68.373-29.333 95.659 17.621 11.413 29.333 31.125 29.333 53.675 0 35.349-28.651 64-64 64h-64c-41.792 100.203-140.651 170.667-256 170.667h-85.333v256c0 23.573 19.093 42.667 42.667 42.667h384c5.888 0 11.221-2.389 15.083-6.251l192-192c3.861-3.861 6.251-9.195 6.251-15.083v-554.667zM768 865.835v-161.835h161.835l-161.835 161.835zM426.667 576c109.952 0 201.984-75.712 227.435-177.792 8.619 4.395 18.219 7.125 28.565 7.125h64c11.776 0 21.333-9.557 21.333-21.333s-9.557-21.333-21.333-21.333h-64c-4.523 0-8.491-1.728-11.947-4.139 55.787-13.803 97.28-63.808 97.28-123.861v-234.667c0-11.776-9.557-21.333-21.333-21.333h-128c-5.888 0-11.221 2.389-15.083 6.251v0l-36.416 36.416h-323.669l-36.416-36.416c-3.861-3.861-9.195-6.251-15.083-6.251h-128c-11.776 0-21.333 9.557-21.333 21.333v234.667c0 60.053 41.493 110.059 97.28 123.861-3.456 2.411-7.424 4.139-11.947 4.139h-64c-11.776 0-21.333 9.557-21.333 21.333s9.557 21.333 21.333 21.333h64c10.347 0 19.947-2.731 28.565-7.125 25.472 102.080 117.483 177.792 227.435 177.792h42.667zM576 192h85.333c11.776 0 21.333 9.557 21.333 21.333s-9.557 21.333-21.333 21.333h-85.333c-11.776 0-21.333-9.557-21.333-21.333s9.557-21.333 21.333-21.333zM149.333 234.667c-11.776 0-21.333-9.557-21.333-21.333s9.557-21.333 21.333-21.333h85.333c11.776 0 21.333 9.557 21.333 21.333s-9.557 21.333-21.333 21.333h-85.333zM193.429 363.861c4.459-0.768 10.517-1.195 19.904-1.195h384c9.963 0 15.893-0.427 20.139-0.299-10.496 96.128-91.883 170.965-190.805 170.965h-42.667c-98.411 0-179.392-74.069-190.571-169.472z" />
<glyph unicode="&#xe909;" glyph-name="dialogue-money-o" data-tags="dialogue-money-o" d="M896 192h-268.501l-249.749-249.749c-3.861-3.861-9.195-6.251-15.083-6.251-11.776 0-21.333 9.557-21.333 21.333v234.667h-213.333c-23.552 0-42.667 19.093-42.667 42.667v597.333c0 23.552 19.115 42.667 42.667 42.667h768c23.552 0 42.667-19.093 42.667-42.667v-597.333c0-23.573-19.093-42.667-42.667-42.667zM896 832h-768v-597.333h234.667c11.776 0 21.333-9.557 21.333-21.333v-204.501l219.584 219.584c3.861 3.861 9.195 6.251 15.083 6.251h277.333v597.333zM533.333 320c0-11.776-9.557-21.333-21.333-21.333s-21.333 9.557-21.333 21.333v128h-106.667c-11.776 0-21.333 9.557-21.333 21.333s9.557 21.333 21.333 21.333h106.667v64h-106.667c-11.776 0-21.333 9.557-21.333 21.333s9.557 21.333 21.333 21.333h106.667v12.501l-100.416 100.416c-3.861 3.861-6.251 9.195-6.251 15.083 0 11.776 9.557 21.333 21.333 21.333 5.888 0 11.221-2.389 15.083-6.251l91.584-91.584 91.584 91.584c3.861 3.861 9.195 6.251 15.083 6.251 11.776 0 21.333-9.557 21.333-21.333 0-5.888-2.389-11.221-6.251-15.083l-100.416-100.416v-12.501h106.667c11.776 0 21.333-9.557 21.333-21.333s-9.557-21.333-21.333-21.333h-106.667v-64h106.667c11.776 0 21.333-9.557 21.333-21.333s-9.557-21.333-21.333-21.333h-106.667v-128z" />
<glyph unicode="&#xe90a;" glyph-name="dialogue-money" data-tags="dialogue-money" d="M896 192c23.573 0 42.667 19.093 42.667 42.667v597.333c0 23.573-19.115 42.667-42.667 42.667h-768c-23.552 0-42.667-19.115-42.667-42.667v-597.333c0-23.552 19.115-42.667 42.667-42.667h213.333v-234.667c0-11.776 9.557-21.333 21.333-21.333 5.888 0 11.221 2.389 15.083 6.251l249.749 249.749h268.501zM533.333 320c0-11.776-9.557-21.333-21.333-21.333s-21.333 9.557-21.333 21.333v128h-106.667c-11.776 0-21.333 9.557-21.333 21.333s9.557 21.333 21.333 21.333h106.667v64h-106.667c-11.776 0-21.333 9.557-21.333 21.333s9.557 21.333 21.333 21.333h106.667v12.501l-100.416 100.416c-3.861 3.861-6.251 9.195-6.251 15.083 0 11.776 9.557 21.333 21.333 21.333 5.888 0 11.221-2.389 15.083-6.251v0l91.584-91.584 91.584 91.584c3.861 3.861 9.195 6.251 15.083 6.251 11.776 0 21.333-9.557 21.333-21.333 0-5.888-2.389-11.221-6.251-15.083v0l-100.416-100.416v-12.501h106.667c11.776 0 21.333-9.557 21.333-21.333s-9.557-21.333-21.333-21.333h-106.667v-64h106.667c11.776 0 21.333-9.557 21.333-21.333s-9.557-21.333-21.333-21.333h-106.667v-128z" />
<glyph unicode="&#xe90b;" glyph-name="head-o" data-tags="head-o" d="M512-64c-282.773 0-512 229.227-512 512s229.227 512 512 512 512-229.227 512-512c0-282.773-229.227-512-512-512zM512 917.333c-259.2 0-469.333-210.133-469.333-469.333s210.133-469.333 469.333-469.333c259.2 0 469.333 210.133 469.333 469.333s-210.133 469.333-469.333 469.333zM832 192c-11.776 0-21.333 9.557-21.333 21.333v64c0 47.125-110.144 85.333-298.667 85.333s-298.667-38.208-298.667-85.333v-65.451h-0.299c-0.768-11.072-9.771-19.883-21.035-19.883-11.776 0-21.333 9.557-21.333 21.333v64c0 70.699 129.259 128 341.333 128s341.333-57.301 341.333-128v-64c0-11.776-9.557-21.333-21.333-21.333zM512 490.667c-58.901 0-106.667 47.744-106.667 106.667v85.333c0 58.901 47.765 106.667 106.667 106.667s106.667-47.765 106.667-106.667v-85.333c0-58.923-47.765-106.667-106.667-106.667zM576 682.667c0 35.349-28.651 64-64 64s-64-28.651-64-64v-85.333c0-35.349 28.651-64 64-64s64 28.651 64 64v85.333z" />
<glyph unicode="&#xe90c;" glyph-name="home-o" data-tags="home-o" d="M1002.667 426.667c-5.888 0-11.221 2.389-15.083 6.251v0l-48.917 48.917v-439.168c0-11.776-9.557-21.333-21.333-21.333h-277.333c-11.776 0-21.333 9.557-21.333 21.333v320h-213.333v-320c0 0 0 0 0 0 0-11.776-9.557-21.333-21.333-21.333h-277.333c-11.776 0-21.333 9.557-21.333 21.333v0 439.168l-48.917-48.917c-3.861-3.861-9.195-6.251-15.083-6.251-11.776 0-21.333 9.557-21.333 21.333 0 5.888 2.389 11.221 6.251 15.083l490.667 490.667c3.861 3.861 9.195 6.251 15.083 6.251s11.221-2.389 15.083-6.251l490.667-490.667c3.861-3.861 6.251-9.195 6.251-15.083 0-11.776-9.557-21.333-21.333-21.333zM512 908.501l-384-384v-460.501h234.667v320c0 11.776 9.557 21.333 21.333 21.333h256c11.776 0 21.333-9.557 21.333-21.333v-320h234.667v460.501l-384 384z" />
<glyph unicode="&#xe90d;" glyph-name="home" data-tags="home" d="M1002.667 426.667c-5.888 0-11.221 2.389-15.083 6.251v0l-48.917 48.917v-439.168c0-11.776-9.557-21.333-21.333-21.333h-277.333c-11.776 0-21.333 9.557-21.333 21.333v320h-213.333v-320c0-11.776-9.557-21.333-21.333-21.333h-277.333c-11.776 0-21.333 9.557-21.333 21.333v439.168l-48.917-48.917c-3.861-3.861-9.195-6.251-15.083-6.251-11.776 0-21.333 9.557-21.333 21.333 0 5.888 2.389 11.221 6.251 15.083l490.667 490.667c3.861 3.861 9.195 6.251 15.083 6.251s11.221-2.389 15.083-6.251v0l490.667-490.667c3.861-3.861 6.251-9.195 6.251-15.083 0-11.776-9.557-21.333-21.333-21.333z" />
<glyph unicode="&#xe90e;" glyph-name="arrow-down" data-tags="arrow-down" d="M790.624 553.376v0l-256-256c-5.792-5.792-13.792-9.376-22.624-9.376s-16.832 3.584-22.624 9.376v0l-256 256c-5.792 5.792-9.376 13.792-9.376 22.624 0 17.664 14.336 32 32 32 8.832 0 16.832-3.584 22.624-9.376v0l233.376-233.376 233.376 233.376c5.792 5.792 13.792 9.376 22.624 9.376 17.664 0 32-14.336 32-32 0-8.832-3.584-16.832-9.376-22.624z" />
<glyph unicode="&#xe90f;" glyph-name="arrow-up" data-tags="arrow-up" d="M790.624 342.624v0l-256 256c-5.792 5.792-13.792 9.376-22.624 9.376s-16.832-3.584-22.624-9.376v0l-256-256c-5.792-5.792-9.376-13.792-9.376-22.624 0-17.664 14.336-32 32-32 8.832 0 16.832 3.584 22.624 9.376v0l233.376 233.376 233.376-233.376c5.792-5.792 13.792-9.376 22.624-9.376 17.664 0 32 14.336 32 32 0 8.832-3.584 16.832-9.376 22.624z" />
<glyph unicode="&#xe910;" glyph-name="arrow-back" data-tags="arrow-back" d="M781.248 850.752v0l-402.752-402.752 402.752-402.752c11.584-11.584 18.752-27.584 18.752-45.248 0-35.36-28.64-64-64-64-17.664 0-33.664 7.168-45.248 18.752v0l-448 448c-11.584 11.584-18.752 27.584-18.752 45.248s7.168 33.664 18.752 45.248v0l448 448c11.584 11.584 27.584 18.752 45.248 18.752 35.36 0 64-28.64 64-64 0-17.664-7.168-33.664-18.752-45.248z" />
<glyph unicode="&#xe911;" glyph-name="arrow-left" data-tags="arrow-left" d="M617.376 726.624v0l-256-256c-5.792-5.792-9.376-13.792-9.376-22.624s3.584-16.832 9.376-22.624v0l256-256c5.792-5.792 13.792-9.376 22.624-9.376 17.664 0 32 14.336 32 32 0 8.832-3.584 16.832-9.376 22.624v0l-233.376 233.376 233.376 233.376c5.792 5.792 9.376 13.792 9.376 22.624 0 17.664-14.336 32-32 32-8.832 0-16.832-3.584-22.624-9.376z" />
<glyph unicode="&#xe912;" glyph-name="arrow-right" data-tags="arrow-right" d="M406.624 726.624v0l256-256c5.792-5.792 9.376-13.792 9.376-22.624s-3.584-16.832-9.376-22.624v0l-256-256c-5.792-5.792-13.792-9.376-22.624-9.376-17.664 0-32 14.336-32 32 0 8.832 3.584 16.832 9.376 22.624v0l233.376 233.376-233.376 233.376c-5.792 5.792-9.376 13.792-9.376 22.624 0 17.664 14.336 32 32 32 8.832 0 16.832-3.584 22.624-9.376z" />
<glyph unicode="&#xe913;" glyph-name="authentication" data-tags="authentication" horiz-adv-x="2560" d="M2432 0h-1850.080c-39.616-23.168-83.936-44.832-133.76-63.872v-0.128c-0.064 0.032-0.128 0.032-0.192 0.064-0.064-0.032-0.128-0.032-0.192-0.064v0.128c-391.328 145.056-447.744 443.36-447.744 443.36v388.256c158.848 13.856 256.256 192.256 256.256 192.256h383.456c0 0 15.872-28.768 44.864-64h1747.392c70.688 0 128-57.312 128-128v-640c0-70.688-57.312-128-128-128zM831.968 715.168c-113.856 33.856-192.288 129.472-227.52 180.832h-312.896c-35.232-51.36-113.632-146.976-227.52-180.832v-328.64c9.056-36.704 93.984-258.176 383.968-381.888 279.168 121.504 375.072 346.304 383.968 381.92v328.608zM1383.392 402.304c-2.784-32.384-7.008-58.208-12.608-77.6-5.6-19.68-21.792-29.504-48.544-29.504h-230.048c-27.072 0-40.576 14.592-40.576 43.776v138.464h279.072v-29.024h39.2v221.76h-375.68v-35.2h336.48v-122.272h-279.072v65.216h-40.128v-247.456c0-50.144 23.776-75.168 71.392-75.168h248.288c42.944 0 69.088 17.92 78.4 53.76 4.96 19.68 9.632 45.984 13.952 78.944-14.656 4.128-28 8.896-40.128 14.304zM1501.28 693.568v0l-27.52-23.776c25.824-28.256 50.592-57.472 74.208-87.584l32.192 27.136c-25.728 28.576-52.032 56.64-78.88 84.224zM1613.248 421.856c-32.352-27.904-60.032-51.232-83.072-69.952v194.144h-98.912v-34.304h62.528v-160.32c0-17.44-4.992-31.392-14.944-41.856l27.552-29.504c6.272 8.96 13.472 17.248 21.472 24.736 29.984 27.296 60.96 53.472 92.864 78.496-3.104 11.776-5.6 24.608-7.488 38.56zM1745.312 697.344h-37.792c0-44.448-0.48-84.384-1.408-119.904-0.608-137.056-49.152-240.928-145.6-311.68 9.44-9.76 18.496-19.936 27.072-30.432 78.56 62.176 126.4 141.184 143.52 236.96 23.936-104.672 69.152-180.8 135.552-228.384v0c9.696 12.544 19.808 24.768 30.304 36.64-85.056 51.424-136.16 149.472-153.248 294.304 0.8 40.8 1.312 81.664 1.6 122.496zM1900.512 509.376h56.448v-148.928c0-18.4-4.672-34.272-13.984-47.584l26.624-30.944c19.264 22.528 47.712 52.8 85.408 90.912-4.672 16.512-7.648 30.304-8.864 41.376-21.184-23.456-38.912-42.176-53.216-56.128v185.536h-92.384v-34.24zM1945.792 694.976v0c0 0 0 0 0 0l-28.48-25.216c25.6-26.944 49.76-55.232 72.32-84.704l32.672 28.064c-14.624 16.8-40.128 44.096-76.512 81.856v0zM2363.488 294.784h-132.544v169.376h108.256v35.2h-108.288v143.264h125.056v35.2h-311.744v-35.2h149.344v-347.84h-74.208v263.136h-35.936v-263.136h-64.864v-35.2h344.896v35.2zM416 297.408l-160.672 160.736 47.744 49.088 111.168-114.304 178.688 183.712 47.744-49.088-224.672-230.144z" />
<glyph unicode="&#xe914;" glyph-name="circle-mark1" data-tags="circle-mark1" d="M512 960c-282.766 0-512-229.234-512-512s229.234-512 512-512 512 229.234 512 512c0 282.766-229.234 512-512 512zM512-7.111c-251.364 0-455.111 203.776-455.111 455.111 0 251.364 203.748 455.111 455.111 455.111 251.335 0 455.111-203.776 455.111-455.111s-203.776-455.111-455.111-455.111zM568.889 675.556c0-31.419-25.47-56.889-56.889-56.889s-56.889 25.47-56.889 56.889c0 31.419 25.47 56.889 56.889 56.889s56.889-25.47 56.889-56.889zM512 561.778c-31.431 0-56.889-25.458-56.889-56.889v-284.444c0-31.431 25.458-56.889 56.889-56.889s56.889 25.458 56.889 56.889v284.444c0 31.431-25.458 56.889-56.889 56.889z" />
<glyph unicode="&#xe915;" glyph-name="bell" data-tags="bell" d="M938.667 78.222h-258.873c-13.596-80.64-83.285-142.222-167.794-142.222s-154.197 61.582-167.794 142.222h-258.873c-47.132 0-85.333 38.201-85.333 85.333s38.201 85.333 85.333 85.333h28.444c0 43.975 0 139.008 0 284.444 0 202.752 189.042 292.693 285.724 325.49 6.315 56.832 53.988 101.177 112.498 101.177 7.595 0 14.962-0.825 22.101-2.219 2.93-0.569 5.632-1.678 8.476-2.446 4.039-1.138 8.107-2.133 11.918-3.698 3.755-1.508 7.196-3.527 10.752-5.404 2.532-1.365 5.148-2.56 7.538-4.096 4.181-2.645 7.964-5.746 11.748-8.903 1.365-1.166 2.816-2.19 4.153-3.413 4.238-3.897 7.993-8.135 11.605-12.601 0.569-0.711 1.166-1.365 1.707-2.076 3.868-5.063 7.225-10.439 10.212-16.1 0.114-0.228 0.256-0.455 0.37-0.683 6.286-12.089 10.325-25.372 11.918-39.509 96.683-32.825 285.724-122.795 285.724-325.518 0-145.436 0-240.469 0-284.444h28.444c47.132 0 85.333-38.201 85.333-85.333s-38.201-85.333-85.333-85.333zM512-7.111c52.964 0 97.052 36.352 109.739 85.333h-219.506c12.715-48.981 56.804-85.333 109.767-85.333zM938.667 192h-85.333v341.333c0 0-5.66 211.029-284.444 284.444h-7.879c4.864 8.391 7.879 18.034 7.879 28.444 0 31.431-25.458 56.889-56.889 56.889s-56.889-25.458-56.889-56.889c0-10.411 3.015-20.053 7.879-28.444h-7.879c-281.771-81.977-284.444-284.444-284.444-284.444v-341.333h-85.333c-15.701 0-28.444-12.743-28.444-28.444s12.743-28.444 28.444-28.444h853.333c15.701 0 28.444 12.743 28.444 28.444s-12.743 28.444-28.444 28.444z" />
<glyph unicode="&#xe923;" glyph-name="xyauto" data-tags="xyauto" horiz-adv-x="4768" d="M1531.536 627.36l-69.008 48.576-6.496-8.832c-82.336-111.856-169.168-190.288-265.504-239.824l-13.552-6.944 66.368-67.584 7.296 3.632c35.888 17.936 73.824 44.064 111.088 75.712l1.744-402.512h85.040l-1.632 486.096c28.704 32.272 55.488 66.944 78.752 102.608l5.904 9.072zM1275.44 586.672c67.552 47.664 137.792 126.176 208.8 233.36l5.728 8.64-67.488 53.088-6.64-10.464c-57.952-91.328-128.416-166.096-209.44-222.288l-12.528-8.688 74.784-58.464 6.784 4.816zM1543.712 547.424h351.552l-1.696-391.168c0-11.824-3.92-21.632-12.032-29.968-8.016-8.256-17.6-12.272-29.264-12.272h-132.816v-85.152h132.816c17.408 0 34.080 3.424 49.52 10.192 15.264 6.656 28.704 15.84 40 27.28 11.264 11.424 20.288 24.992 26.832 40.352 6.64 15.472 9.984 32.176 9.984 49.584l1.696 391.168h100.784v88.688h-539.072l1.696-88.704zM2057.616 842.816h-486.64v-85.12h486.64v85.12zM2968.496 805.696c-6.528 15.008-15.488 28.304-26.64 39.488-11.168 11.152-24.448 20.128-39.44 26.656-15.184 6.592-31.456 9.936-48.48 9.936h-552.64c-17.024 0-33.328-3.328-48.48-9.936-15.024-6.56-28.288-15.52-39.44-26.656-11.152-11.184-20.128-24.464-26.64-39.488-6.592-15.168-9.92-31.504-9.92-48.56v-603.008c0-17.104 3.344-33.28 9.936-48.128 6.496-14.688 15.456-27.792 26.608-38.96 11.088-11.136 24.368-20.096 39.44-26.672 15.184-6.576 31.488-9.904 48.48-9.904h552.64c16.976 0 33.28 3.328 48.496 9.904 15.024 6.544 28.288 15.52 39.44 26.672 11.088 11.168 20.080 24.272 26.608 38.96 6.576 14.848 9.92 31.040 9.92 48.128v603.008c0.016 17.040-3.312 33.376-9.888 48.56zM2898.944 154.128c0-11.92-4.288-22.032-13.184-30.912-8.896-8.928-19.312-13.232-31.808-13.232h-552.64c-12.528 0-22.928 4.32-31.84 13.232-8.848 8.864-13.184 18.96-13.184 30.912v603.008c0 12.544 4.336 22.976 13.184 31.872 8.912 8.88 19.312 13.2 31.84 13.2h552.64c12.496 0 22.928-4.32 31.808-13.184 8.896-8.928 13.184-19.36 13.184-31.888v-603.008zM2617.264 410.88l1.296 9.36h-78.688l-1.104-6.928c-18.080-86.816-50.304-105.104-72.128-123.664l-3.536-3.024c-18.096-15.584-73.136-63.008-143.52-79.984l-6.304-1.488-0.032-78.464 10.624 3.216c54 16.368 102.848 37.776 145.264 63.568 40.512 24.64 74.4 56.128 100.752 93.696l252.944-164.512 0.72 93.92-217.712 140.112c6.496 16.88 6.848 20.96 11.424 54.192zM2804.208 497.040c-9.68 9.36-20.976 16.896-33.568 22.384-12.768 5.568-26.464 8.4-40.704 8.4h-302.96c-14.256 0-27.92-2.832-40.704-8.4-12.592-5.488-23.872-13.024-33.552-22.384-9.76-9.472-17.504-20.672-23.024-33.296-6.288-14.464-8.336-49.696-8.336-60.192v-117.888h77.792v117.888c0 12.48 4.112 35.040 7.808 38.784 5.36 5.12 11.904 7.6 20.016 7.6h302.96c8.112 0 14.624-2.48 20.016-7.6 3.696-3.744 7.84-26.336 7.84-38.784v-117.888h77.776v117.888c0 10.496-2.064 45.728-8.352 60.224-5.536 12.592-13.264 23.792-23.008 33.264zM2425.152 551.024h305.696c24.384 0 45.456 8.72 62.64 25.888 17.168 17.168 25.84 38.272 25.84 62.688v33.808c0 24.448-8.72 45.424-25.888 62.304-17.184 16.848-38.224 25.376-62.576 25.376h-305.696c-24.336 0-45.52-8.496-62.928-25.312-17.568-16.88-26.464-37.888-26.464-62.368v-33.808c0-24.48 8.896-45.6 26.368-62.752 17.424-17.12 38.608-25.824 63.008-25.824zM2413.552 673.408c0 2.656 0.944 4.752 3.024 6.816 2.048 2.064 4.512 3.008 7.76 3.008h306.432c3.232 0 5.712-0.96 7.792-3.008 2.064-2.080 2.976-4.16 2.976-6.816v-33.808c0-3.248-0.928-5.632-2.976-7.712-2.080-2.032-4.56-3.008-7.792-3.008h-306.448c-3.248 0-5.712 0.944-7.76 3.008-2.080 2.080-3.024 4.464-3.024 7.712v33.808zM3073.376 749.76v90.688h175.168v-90.688h-175.168zM3074.416 474.912v90.672h175.168v-90.672h-175.168zM3291.68 690.656v103.424c17.152 9.152 28.464 19.12 34 29.904 4.944 9.808 9.44 29.728 13.504 59.792h81.488l-3.92-41.664h459.632v-90.672h-494.944c-13.936-15.68-26.288-27.6-37.040-35.776-13.936-11.136-31.52-19.472-52.72-25.008zM3337.232 579.36l-0.016 88.784h495.248l-0.64-88.784h-494.592zM3293.408 409.616v89.2h415.264c38.64 0 68.704-11.6 90.208-34.784 21.2-22.88 31.808-49.504 31.808-79.904v-203.248c0-39.536 15.104-59.312 45.312-59.312v-92.144c-38.928 2.288-68.4 13.408-88.448 33.328-24.976 25.168-37.472 67.312-37.472 126.448v160.608c0 19.28-5.248 34.464-15.696 45.584-8.704 9.472-25.424 14.224-50.096 14.224h-390.88zM3967.12 190.864v90.672h367.744v141.664h-239.648c-38.064 0-64.48 7.024-79.296 21.072-19.184 17.968-28.752 39.856-28.752 65.68 0 16.992 3.040 34.144 9.136 51.456l49.68 152.784h-78.864v89.68h111.984l28.752 80.864h84.096l-29.632-80.864h605.68v-89.696h-638.784l-47.056-142.976c-8.432-23.856-12.64-37.568-12.64-41.168 0-10.784 9.152-16.16 27.456-16.16h237.904v143.12h80.608v-143.12h307.84v-90.672h-307.84v-141.648h352.512v-90.672h-352.512v-161.456h-80.608v161.44h-367.76zM3092.976 34.080c67.536 47.664 137.792 126.176 208.8 233.36l5.728 8.64-67.504 53.088-6.64-10.448c-57.952-91.328-128.416-166.112-209.44-222.288l-12.528-8.688 74.784-58.464 6.8 4.8zM555.744 954.256l-0.352 1.12-2.944 2.832c-0.736 0.352-1.328 0.56-1.744 0.608l-1.344 0.064c-11.664 0.752-22.4 1.12-32.8 1.12-274.176 0-497.216-220.032-497.216-490.496 0-53.568 8.512-105.568 25.36-155.264l0.096 0.272c0 0 32.656-93.52 120-138.368 0.112-0.064 0.224-0.144 0.224-0.144 66.8-33.232 160.048-46.544 248.128 54.88 0.048 0.048 0.096 0.112 0.096 0.112l-0.016 0.080c-2.272 0.912-4.528 1.856-6.768 2.848-2.784 1.232-4.912 2.224-7.040 3.264-2.88 1.392-4.976 2.48-7.056 3.584-13.616 7.312-26.032 15.808-37.408 25.536l-0.912 0.784c-1.584 1.36-3.136 2.768-4.688 4.176l-1.28 1.184c-1.488 1.376-2.928 2.784-4.368 4.208l-0.976 0.96c-1.808 1.824-3.184 3.248-4.544 4.688l-0.8 0.88c-1.888 2.064-3.248 3.552-4.56 5.072l-0.912 1.072c-4.432 5.184-8.624 10.592-12.48 16.080l-0.896 1.28c-0.832 1.216-1.648 2.464-2.464 3.712l-14.080 24.944-5.040 11.392c-0.656 1.632-1.248 3.2-1.84 4.784l-1.152 3.024c-0.896 2.528-1.776 5.104-2.592 7.696l-0.592 2.016c-0.768 2.56-1.28 4.304-1.76 6.080l-0.656 2.56c-0.608 2.432-1.024 4.080-1.392 5.744-0.272 1.104-0.528 2.304-0.768 3.52l-1.584 8.352c-0.272 1.712-0.544 3.408-0.768 5.088l-1.376 12.128c-0.16 1.936-0.288 3.952-0.384 5.952l-0.16 2.672c-0.128 2.992-0.192 5.92-0.192 8.88 0.016 3.248 0.080 6.288 0.224 9.312l0.144 2.496c0.144 2.672 0.288 4.704 0.464 6.736l0.368 3.728c0.192 1.792 0.4 3.616 0.64 5.424l0.528 3.792c0.272 1.76 0.56 3.456 0.864 5.168l0.704 3.936c0.336 1.664 0.704 3.328 1.072 4.992 0.608 2.736 1.248 5.344 1.936 7.92l0.976 3.696c0.432 1.536 0.88 2.96 1.328 4.4l0.544 1.744 0.672 2.16c0.608 1.84 1.232 3.6 1.872 5.376l0.992 2.704c0.672 1.776 1.392 3.632 2.128 5.488l0.8 1.888c4.912 11.712 10.912 22.992 17.808 33.52 0.128 0.192 0.256 0.384 0.384 0.592-24.592 39.472-37.568 84.816-37.568 131.616 0 134.704 104.384 243.28 238.304 248.848 5.168 4.256 10.416 8.416 15.728 12.48l0.944 0.72c6.32 4.816 12.928 9.616 19.696 14.24 1.040 0.704 1.808 1.712 2.24 2.896l0.352 1.952-0.144 1.2zM913.040 101.808l1.152-0.256 3.936 1.12c0.672 0.464 1.152 0.864 1.392 1.2l0.736 1.136c6.528 9.696 12.256 18.8 17.504 27.792 138.272 237.008 60.96 540.784-172.352 677.184-46.208 27.008-95.344 45.872-146.72 56.384l0.192-0.208c0 0-97.136 18.928-179.872-33.952-0.112-0.064-0.24-0.128-0.352-0.176-62.24-40.928-120.736-114.816-77.68-242.112 0 0 0.048-0.128 0.064-0.208l0.048 0.048c1.936 1.52 3.888 2.992 5.856 4.416 2.464 1.792 4.4 3.136 6.352 4.448 2.656 1.792 4.656 3.056 6.656 4.288 13.168 8.080 26.768 14.528 40.896 19.456l1.136 0.384c1.984 0.672 3.968 1.312 5.968 1.936l1.664 0.512c1.936 0.592 3.888 1.136 5.824 1.648l1.328 0.352c2.496 0.64 4.4 1.104 6.336 1.552l1.152 0.256c2.72 0.592 4.704 1.008 6.672 1.376l1.392 0.24c6.704 1.216 13.488 2.112 20.16 2.672l1.552 0.128c1.472 0.112 2.96 0.192 4.448 0.272l28.608-0.416 12.368-1.392c1.744-0.256 3.392-0.544 5.056-0.832l3.184-0.528c2.624-0.496 5.296-1.024 7.952-1.632l2.032-0.496c2.592-0.624 4.368-1.056 6.128-1.536l2.544-0.72c2.4-0.688 4.032-1.168 5.664-1.696 1.072-0.32 2.256-0.72 3.424-1.12l8-2.848c1.616-0.624 3.2-1.248 4.784-1.904l11.152-4.928c1.76-0.848 3.552-1.744 5.328-2.656l2.384-1.216c2.64-1.392 5.216-2.832 7.76-4.32 2.8-1.648 5.376-3.248 7.92-4.896l2.080-1.392c2.224-1.472 3.92-2.624 5.568-3.808l3.024-2.192c1.44-1.072 2.912-2.176 4.352-3.296l3.008-2.368c1.376-1.12 2.704-2.24 4.016-3.36l3.040-2.592c1.264-1.12 2.512-2.272 3.76-3.44 2.048-1.904 3.968-3.776 5.856-5.664l2.688-2.704c1.104-1.152 2.112-2.256 3.12-3.376l1.232-1.344 1.52-1.68c1.28-1.456 2.48-2.896 3.696-4.336l1.824-2.224c1.2-1.472 2.432-3.040 3.664-4.608l1.216-1.648c7.616-10.16 14.32-21.024 19.92-32.288 0.112-0.208 0.208-0.416 0.32-0.624 46.464 1.36 92.112-10.304 132.48-33.904 116.192-67.936 157.216-212.928 94.464-331.504 1.072-6.608 2-13.232 2.832-19.888l0.144-1.184c0.976-7.888 1.776-16.032 2.336-24.208 0.096-1.248 0.56-2.432 1.376-3.392l1.504-1.296 1.232-0.432zM1.696 216.144l-0.768-0.88-0.912-3.984c0.080-0.816 0.192-1.424 0.384-1.792l0.64-1.184c5.36-10.384 10.56-19.792 15.92-28.72 141.056-235.36 444.288-313.616 675.968-174.464 45.888 27.552 86.048 61.616 119.952 101.648l-0.288-0.064c0 0 63.296 76.144 56.784 174.192 0 0 0 0.272 0.016 0.4-5.904 74.304-42.48 161.2-174.672 184.624-0.064 0.016-0.144 0.016-0.144 0.016l-0.064-0.048c0.4-2.432 0.736-4.848 1.040-7.264 0.384-3.024 0.624-5.36 0.832-7.712 0.288-3.2 0.448-5.552 0.56-7.904 0.752-15.456-0.144-30.48-2.624-45.248l-0.208-1.184c-0.352-2.064-0.752-4.112-1.168-6.176l-0.352-1.712c-0.416-1.984-0.88-3.952-1.36-5.92l-0.32-1.328c-0.64-2.496-1.152-4.4-1.68-6.304l-0.336-1.136c-0.784-2.672-1.376-4.608-2-6.528l-0.448-1.328c-2.16-6.464-4.64-12.864-7.36-18.976l-0.624-1.424c-0.608-1.344-1.264-2.688-1.904-4.032l-14.128-24.912-7.168-10.176c-1.056-1.408-2.112-2.72-3.152-4.032l-2-2.544c-1.696-2.064-3.456-4.144-5.264-6.192l-1.424-1.552c-1.808-1.968-3.024-3.312-4.304-4.64l-1.856-1.888c-1.76-1.776-2.96-2.976-4.208-4.16-0.8-0.8-1.712-1.632-2.624-2.464l-6.336-5.648c-1.328-1.12-2.64-2.208-3.968-3.28l-9.68-7.424c-1.568-1.136-3.232-2.272-4.896-3.392l-2.208-1.504c-2.496-1.648-4.976-3.216-7.504-4.736-2.784-1.664-5.424-3.168-8.096-4.592l-2.208-1.152c-2.368-1.248-4.176-2.176-6.016-3.072l-3.376-1.6c-1.632-0.752-3.296-1.52-4.976-2.24l-3.52-1.504c-1.648-0.672-3.248-1.296-4.88-1.92l-3.728-1.424c-1.584-0.576-3.2-1.104-4.816-1.648-2.656-0.88-5.216-1.68-7.776-2.416l-3.664-1.072c-1.536-0.416-2.992-0.768-4.448-1.12l-1.776-0.432-2.192-0.528c-1.888-0.416-3.728-0.8-5.568-1.152l-2.816-0.544c-1.872-0.336-3.824-0.672-5.792-0.992l-2.032-0.288c-12.56-1.808-25.296-2.464-37.856-1.952-0.24 0-0.464 0.016-0.704 0.032-21.168-41.424-53.328-75.888-93.408-99.968-115.376-69.296-262.096-35.568-335.76 76.544-6.304 2.24-12.56 4.608-18.784 7.072l-1.104 0.432c-7.376 2.944-14.896 6.144-22.336 9.584-1.152 0.528-2.4 0.672-3.632 0.432l-1.856-0.688-1.024-0.816z" />
</font>
</defs>
</svg>
