<?xml version="1.0" encoding="utf-8"?>
<!-- Generator: Adobe Illustrator 19.0.0, SVG Export Plug-In . SVG Version: 6.00 Build 0)  -->
<svg version="1.1" id="图层_1" xmlns="http://www.w3.org/2000/svg" xmlns:xlink="http://www.w3.org/1999/xlink" x="0px" y="0px"
	 width="70px" height="64px" viewBox="0 0 70 64" style="enable-background:new 0 0 70 64;" xml:space="preserve">
<g id="XMLID_3_">
	<path id="XMLID_5_" style="fill-rule:evenodd;clip-rule:evenodd;fill:#24B39F;" d="M68.081,41h-9h-42h-15c-0.552,0-1,0.448-1,1v3
		c0,0.552,0.448,1,1,1h66c0.552,0,1-0.448,1-1v-3C69.081,41.448,68.634,41,68.081,41z"/>
	<path id="XMLID_6_" style="fill-rule:evenodd;clip-rule:evenodd;fill:#24B39F;" d="M11.75,30.5l1.844-0.188
		c-0.083-0.321-0.031-0.965-0.031-1.312c0-2.209,1.478-3.344,3.688-3.344s3.562,1.353,3.562,3.562c0,0.348-0.042,0.741-0.125,1.062
		c5.437,0,12.789,0.031,18.094,0.031c-0.084-0.322-0.469-0.964-0.469-1.312c0-2.209,1.56-3.594,3.769-3.594s3.762,1.572,3.762,3.781
		c0,0.348-0.01,0.771-0.094,1.094c1.344,0,2.331-0.278,2.331-0.278s0.419-0.483,0.419-1.44c0-4.279-2.025-6.062-8.062-6.062
		c-2.487,0-6.206,0.058-10.21,0.134c-0.114-0.112-0.294-0.221-0.539-0.324L38.081,22c-2.896-1.622-7.101-3.5-11.706-3.5h-8.688
		c-2.644,0-5.542,2.169-6.606,3.93c0.017,0-0.345,0.57-0.495,0.57v4.125C10.586,28.658,11.016,30.5,11.75,30.5z"/>
	<path id="XMLID_7_" style="fill-rule:evenodd;clip-rule:evenodd;fill:#24B39F;" d="M21.081,38.239l33.888-0.137
		c0.446,1.722,2.251,3.195,4.112,3.195s3.879-1.473,4.325-3.195l1.75,0.226c0.552,0,1.422-0.526,1.422-1.078L66.564,34
		c0-0.008,0-0.492,0-0.5c-0.008-1.872,0.036-2.544-0.002-4l-8.906-0.188c-0.552,0-0.844-0.698-0.844-1.25l-0.281-4
		c0-0.552,1.26-1.312,1.812-1.312l7.22-0.079c-0.303-2.101-0.759-2.474-1.483-2.671c-2.524-0.688-12.3-0.188-12.3-0.188l-0.5,13.5
		l-31,0.188l-3.2-0.906L14.5,33.312H9.081c-0.552,0-1.237,0.385-1.237,0.938V37c0,0.552,0.541,1.25,1.094,1.25l4.106-0.113
		c0.446,1.722,2.123,3.082,3.984,3.082S20.635,39.961,21.081,38.239z"/>
	<circle id="XMLID_8_" style="fill-rule:evenodd;clip-rule:evenodd;fill:#24B39F;" cx="17.081" cy="29" r="3"/>
	<circle id="XMLID_9_" style="fill-rule:evenodd;clip-rule:evenodd;fill:#24B39F;" cx="42.081" cy="29" r="3"/>
</g>
<g id="XMLID_1_">
	<path id="XMLID_4_" style="fill-rule:evenodd;clip-rule:evenodd;fill:#1D252D;" d="M1.581,25h7c0.276,0,0.5-0.224,0.5-0.5
		S8.857,24,8.581,24h-7c-0.276,0-0.5,0.224-0.5,0.5S1.305,25,1.581,25z"/>
	<path id="XMLID_11_" style="fill-rule:evenodd;clip-rule:evenodd;fill:#1D252D;" d="M2.581,33c-0.276,0-0.5,0.224-0.5,0.5
		s0.224,0.5,0.5,0.5h3c0.276,0,0.5-0.224,0.5-0.5S5.857,33,5.581,33H2.581z"/>
	<path id="XMLID_14_" style="fill-rule:evenodd;clip-rule:evenodd;fill:#1D252D;" d="M68.581,41h-6.509
		c0.687-0.514,1.226-1.206,1.576-2h0.015h0.944h0.474c1.105,0,2-0.895,2-2v-6c0,0-0.014-0.274-0.014-1c0-1.608-0.457-11-3.986-11
		h-10c-1.105,0-2,0.895-2,2v11c0,0.552-0.448,1-1,1h-8H21.247h-1.175h-0.038c-0.288-0.216-0.591-0.413-0.924-0.562
		c0.584-0.351,1.072-0.847,1.416-1.438h18.11c0.693,1.191,1.968,2,3.445,2s2.752-0.809,3.445-2h1.555c1.105,0,2-0.895,2-2v-1
		c0-3.314-2.686-6-6-6h-4c-5.057-3.023-10.838-4-13-4h-9c-1.566,0-7,3.497-7,5v6c0,1.105,0.895,2,2,2h1.555
		c0.344,0.591,0.832,1.087,1.416,1.438c-0.333,0.149-0.636,0.346-0.924,0.562H14.09h-1.189H9.081c-1.105,0-2,0.895-2,2v2
		c0,1.105,0.895,2,2,2h2.425H12.5h0.015c0.35,0.794,0.889,1.486,1.576,2H1.581c-0.276,0-0.5,0.224-0.5,0.5s0.224,0.5,0.5,0.5h67
		c0.276,0,0.5-0.224,0.5-0.5S68.857,41,68.581,41z M66.033,29h-7.952c-0.552,0-1-0.448-1-1v-4c0-0.552,0.448-1,1-1h7.087
		C65.602,24.487,65.92,26.506,66.033,29z M21.247,34h28.834c1.105,0,2-0.895,2-2V21c0-0.552,0.448-1,1-1h10
		c0.608,0,1.228,0.695,1.745,2h-6.745c-1.105,0-2,0.895-2,2v4c0,1.105,0.895,2,2,2h7.986c0.007,0.328,0.014,1,0.014,1v6
		c0,0.552-0.448,1-1,1h-0.474h-0.626h-0.009c0.067-0.324,0.109-0.656,0.109-1c0-2.761-2.239-5-5-5c-2.761,0-5,2.239-5,5
		c0,0.344,0.042,0.676,0.109,1h-0.009h-0.626H22.557h-0.576h-0.009c0.067-0.324,0.109-0.656,0.109-1c0-1.136-0.404-2.163-1.044-3
		h0.038H21.247z M42.081,32c-1.657,0-3-1.343-3-3s1.343-3,3-3c1.657,0,3,1.343,3,3S43.738,32,42.081,32z M13.223,30h-1.141
		c-0.552,0-1-0.448-1-1c0,0,0-5.063,0-6c0-0.553,4.353-4,6-4h9c3.45,0,8.897,2.026,11,3c0,0-7.738,0-11,0c2.747,0-7.577-0.387-11,1
		c17.185,0,28,0,28,0c2.761,0,5,2.239,5,5v1c0,0.552-0.448,1-1,1H45.94c0.083-0.321,0.141-0.653,0.141-1c0-2.209-1.791-4-4-4
		s-4,1.791-4,4c0,0.347,0.058,0.679,0.141,1H20.94c0.083-0.321,0.141-0.653,0.141-1c0-2.209-1.791-4-4-4s-4,1.791-4,4
		C13.081,29.347,13.139,29.679,13.223,30z M14.081,29c0-1.657,1.343-3,3-3c1.657,0,3,1.343,3,3s-1.343,3-3,3
		C15.424,32,14.081,30.657,14.081,29z M11.506,38H9.081c-0.552,0-1-0.448-1-1v-2c0-0.552,0.448-1,1-1h3.821h0.186h0.038
		c-0.641,0.837-1.045,1.864-1.045,3c0,0.344,0.042,0.676,0.109,1h-0.009H11.506z M17.081,41c-2.209,0-4-1.791-4-4s1.791-4,4-4
		s4,1.791,4,4S19.29,41,17.081,41z M20.072,41c0.687-0.514,1.226-1.206,1.576-2h0.015h0.894h30.999H54.5h0.015
		c0.35,0.794,0.889,1.486,1.576,2H20.072z M59.081,41c-2.209,0-4-1.791-4-4s1.791-4,4-4s4,1.791,4,4S61.29,41,59.081,41z"/>
</g>
</svg>
