<?xml version="1.0" encoding="utf-8"?>
<!-- Generator: Adobe Illustrator 19.0.0, SVG Export Plug-In . SVG Version: 6.00 Build 0)  -->
<svg version="1.1" id="图层_1" xmlns="http://www.w3.org/2000/svg" xmlns:xlink="http://www.w3.org/1999/xlink" x="0px" y="0px"
	 width="48px" height="48px" viewBox="9 -9 48 48" style="enable-background:new 9 -9 48 48;" xml:space="preserve">
<style type="text/css">
	.st0{fill:#00A9EE;}
	.st1{fill:#FFFFFF;}
</style>
<path class="st0" d="M51,39H15c-3.3,0-6-2.7-6-6V-3c0-3.3,2.7-6,6-6h36c3.3,0,6,2.7,6,6v36C57,36.3,54.3,39,51,39z"/>
<path class="st1" d="M39.745,18.472c1.426-2.45,2.563-5.254,3.314-8.307H34.9V7.4h10V5.704h-10V1.088h-3.846
	c-0.69,0-0.774,0.624-0.774,0.624v3.994h-9.381v1.696h9.379v2.765h-7.69v1.541H38.13c-0.571,1.946-1.325,3.778-2.232,5.438
	c-3.504-1.157-5.472-1.96-9.77-2.363c-8.157-0.768-10.034,3.709-10.326,6.446c-0.443,4.17,3.25,7.578,8.782,7.578
	s9.203-2.547,12.709-6.794c4.606,2.198,13.446,6.016,15.486,6.899l0.12-6.285C52.9,22.627,42.114,19.33,39.745,18.472z
	 M23.972,26.165c-5.846,0-6.771-3.691-6.461-5.234c0.307-1.534,2-3.539,5.251-3.539c3.734,0,7.08,0.958,11.096,2.91
	C31.038,23.978,27.572,26.165,23.972,26.165z"/>
</svg>
