<?xml version="1.0" encoding="utf-8"?>
<!-- Generator: Adobe Illustrator 19.0.0, SVG Export Plug-In . SVG Version: 6.00 Build 0)  -->
<svg version="1.1" id="图层_1" xmlns="http://www.w3.org/2000/svg" xmlns:xlink="http://www.w3.org/1999/xlink" x="0px" y="0px"
	 width="1190.55px" height="841.89px" viewBox="0 0 1190.55 841.89" style="enable-background:new 0 0 1190.55 841.89;"
	 xml:space="preserve">
<g>
	<g id="XMLID_123_">
		<path id="XMLID_124_" style="fill-rule:evenodd;clip-rule:evenodd;fill:#FFFFFF;" d="M547.73,418.057v4.598
			c8.24-1.724,14.089-4.692,17.54-8.908c3.45,4.409,9.008,7.377,16.677,8.908v-4.598c-5.562-1.724-9.587-4.786-12.076-9.195h12.076
			v-4.885h-12.939c0.189-0.763,0.288-2.2,0.288-4.31v-2.586h10.926v-4.885h-19.552c0.575-1.149,0.957-2.106,1.15-2.874
			c0-0.382,0.094-0.763,0.288-1.149h-7.763c-0.575,4.409-2.974,7.471-7.188,9.195v3.736c4.214-0.575,7.665-1.913,10.351-4.023h3.738
			v3.736c0,1.149-0.099,2.204-0.288,3.161h-13.514v4.885h12.364C558.464,412.884,554.438,415.951,547.73,418.057z M584.535,418.919
			h17.54c5.751,0,8.626-2.873,8.626-8.621v-18.103h-26.166V418.919z M592.298,397.367h10.639v12.356
			c0,2.685-1.249,4.023-3.738,4.023h-6.901V397.367z M554.631,453.402h41.405c6.901,0.189,10.252-2.874,10.064-9.195v-20.69h-51.469
			V453.402z M563.257,429.264h34.217v6.609h-34.217V429.264z M563.257,441.045h34.217v2.873c0.189,2.685-1.056,3.924-3.738,3.736
			h-30.479V441.045z M637.729,404.264c-1.15-5.361-2.875-10.152-5.176-14.368h-7.763c1.914,4.598,3.352,9.388,4.313,14.368H637.729z
			 M682.584,392.195h-38.242v6.035h38.242V392.195z M642.617,432.137v6.897c14.565,0.193,25.685-0.476,33.354-2.011
			c0.382,1.342,0.669,2.779,0.863,4.31h8.626c-2.112-8.046-4.601-14.749-7.476-20.115h-7.476c0.189,0.386,0.476,0.961,0.863,1.724
			c1.532,3.641,2.489,6.322,2.875,8.046c-6.137,0.768-13.613,1.149-22.428,1.149c4.601-4.979,8.339-10.727,11.214-17.241h23.29
			v-6.034h-45.718v6.034h11.789C650.667,420.836,647.406,426.583,642.617,432.137z M636.291,437.31v-27.299h-15.527v6.035h6.613
			v23.85c0.189,4.598-2.013,7.664-6.613,9.195v5.172c5.364-0.575,9.489-2.779,12.364-6.609c2.489,3.637,6.708,5.46,12.651,5.46
			h41.405v-5.747h-40.83C639.836,447.179,636.479,443.825,636.291,437.31z M733.765,434.724v-10.345h20.99v-6.322h-20.99v-10.632
			h-9.776v10.632h-14.664c4.407-6.322,7.763-11.876,10.064-16.667h39.392v-6.034h-36.804c0.189-0.575,0.476-1.437,0.863-2.586
			c0.764-1.724,1.339-3.062,1.725-4.023h-10.351c-0.193,0.961-0.575,2.299-1.15,4.023c-0.386,1.149-0.674,2.012-0.863,2.586h-15.814
			v6.034h13.514c-1.918,4.409-4.987,9.963-9.201,16.667v6.322h23.29v10.345h-29.616v6.322h29.616v13.793h9.776v-13.793h26.741
			v-6.322H733.765z"/>
	</g>
</g>
<g id="XMLID_2_">
	<g id="XMLID_31_">
		<path id="XMLID_32_" style="fill-rule:evenodd;clip-rule:evenodd;fill:#24B39F;" d="M507.173,371.5h-53.337
			c-12.888,0-23.335,10.447-23.335,23.333v53.333c0,12.887,10.448,23.333,23.335,23.333h53.337
			c12.888,0,23.335-10.447,23.335-23.333v-53.333C530.508,381.947,520.06,371.5,507.173,371.5z"/>
	</g>
</g>
<g>
	<g id="XMLID_93_">
		<path id="XMLID_94_" style="fill-rule:evenodd;clip-rule:evenodd;fill:#FFFFFF;" d="M469.865,420.435h31.917v-13.829h-31.917
			V420.435z M480.504,391.713c10.118,0,19.044,5.055,24.428,12.766h5.052c-5.887-10.172-16.88-17.021-29.479-17.021
			c-12.599,0-23.592,6.849-29.479,17.021h5.052C461.46,396.768,470.386,391.713,480.504,391.713z M480.504,451.287
			c-10.118,0-19.044-5.055-24.428-12.766h-5.052c5.887,10.172,16.88,17.021,29.479,17.021c12.599,0,23.592-6.849,29.479-17.021
			h-5.052C499.548,446.232,490.622,451.287,480.504,451.287z M514.127,426.819c0.272-1.734,0.422-3.509,0.422-5.319
			c0-4.517-0.892-8.822-2.489-12.766h-8.15v13.828h-34.045v4.256h4.255c0,1.278,0.575,2.411,1.468,3.191h-28.057
			c0.376,1.46,0.854,2.878,1.412,4.256h63.122c0.558-1.377,1.036-2.795,1.412-4.256h-2.523c0.892-0.78,1.468-1.913,1.468-3.191
			H514.127z M478.376,428.947c-1.175,0-2.128-0.953-2.128-2.128c0-1.176,0.953-2.128,2.128-2.128c1.175,0,2.128,0.952,2.128,2.128
			C480.504,427.994,479.551,428.947,478.376,428.947z M481.164,430.011c0.893-0.78,1.468-1.913,1.468-3.191h21.278
			c0,1.278,0.575,2.411,1.468,3.191H481.164z M508.166,428.947c-1.175,0-2.128-0.953-2.128-2.128c0-1.176,0.953-2.128,2.128-2.128
			c1.175,0,2.128,0.952,2.128,2.128C510.294,427.994,509.341,428.947,508.166,428.947z M465.609,419.372h-19.078
			c-0.044,0.704-0.073,1.412-0.073,2.128c0,0.715,0.029,1.423,0.073,2.127h19.078V419.372z M465.609,408.734h-16.666
			c-0.558,1.377-1.036,2.795-1.412,4.255h18.078V408.734z"/>
	</g>
</g>
</svg>
